<svg fill="#636E72" xmlns="http://www.w3.org/2000/svg" xmlns:xlink="http://www.w3.org/1999/xlink" version="1.1" x="0px" y="0px" viewBox="0 0 100 100" style="enable-background:new 0 0 100 100;" xml:space="preserve"><path d="M86.6,81L74.3,68.7c5-6,8.1-13.7,8.1-22.2c0-19.2-15.6-34.7-34.8-34.7S12.8,27.3,12.8,46.4s15.6,34.7,34.7,34.7  c7.4,0,14.3-2.4,20-6.3l12.6,12.6c0.9,0.9,2.1,1.4,3.2,1.4c1.1,0,2.4-0.4,3.2-1.4C88.5,85.7,88.5,82.8,86.6,81z M22,46.4  C22,32.4,33.5,21,47.5,21S73,32.4,73,46.4c0,6.9-2.8,13.1-7.3,17.8c-0.5,0.3-1.1,0.5-1.5,1c-0.4,0.4-0.6,0.7-0.8,1.1  c-4.4,3.5-10,5.7-16,5.7C33.5,72,22,60.5,22,46.4z"></path></svg>