<svg fill="#636E72" xmlns="http://www.w3.org/2000/svg" xmlns:xlink="http://www.w3.org/1999/xlink" version="1.1" x="0px" y="0px" viewBox="0 0 100 100" style="enable-background:new 0 0 100 100;" xml:space="preserve"><path d="M90.1,7.6c-1.4-1.4-3.4-1.8-5.2-1.1L8.4,36.8c-1.9,0.8-3.1,2.7-3,4.7C5.5,43.6,7,45.4,9,45.9l32.6,8.7L51,90.8  c0.5,2,2.3,3.5,4.4,3.6c0.1,0,0.2,0,0.3,0c2,0,3.7-1.2,4.5-3l31-78.6C91.8,11,91.4,8.9,90.1,7.6z M56.6,74.1l-6.4-24.7  c-0.4-1.7-1.7-3-3.4-3.4l-21.3-5.6l52.6-20.9L56.6,74.1z"></path></svg>